<?xml version="1.0" encoding="UTF-8"?>
<!DOCTYPE svg PUBLIC "-//W3C//DTD SVG 1.1//EN" "http://www.w3.org/Graphics/SVG/1.1/DTD/svg11.dtd">
<svg xmlns="http://www.w3.org/2000/svg" version="1.1" width="512px" height="512px" style="shape-rendering:geometricPrecision; text-rendering:geometricPrecision; image-rendering:optimizeQuality; fill-rule:evenodd; clip-rule:evenodd" xmlns:xlink="http://www.w3.org/1999/xlink">
<g><path style="opacity:0.999" fill="#54fe55" d="M 40.5,-0.5 C 183.833,-0.5 327.167,-0.5 470.5,-0.5C 491.833,5.5 505.5,19.1667 511.5,40.5C 511.5,183.833 511.5,327.167 511.5,470.5C 505.5,491.833 491.833,505.5 470.5,511.5C 327.167,511.5 183.833,511.5 40.5,511.5C 19.1667,505.5 5.5,491.833 -0.5,470.5C -0.5,327.167 -0.5,183.833 -0.5,40.5C 5.5,19.1667 19.1667,5.5 40.5,-0.5 Z"/></g>
<g><path style="opacity:1" fill="#02fefd" d="M 88.5,178.5 C 97.9611,177.483 106.961,178.983 115.5,183C 129.13,193.495 132.297,206.661 125,222.5C 120.151,229.344 113.651,233.844 105.5,236C 114.085,242.583 121.252,250.416 127,259.5C 137.953,290.427 128.453,312.594 98.5,326C 79.9371,333.748 61.9371,332.748 44.5,323C 33.0323,312.657 28.8656,299.824 32,284.5C 34.6924,272.155 41.5257,262.988 52.5,257C 56.2441,256.071 59.7441,256.571 63,258.5C 63.1667,260 63.3333,261.5 63.5,263C 61.9722,270.805 60.6389,278.638 59.5,286.5C 61.0674,303.632 70.0674,309.132 86.5,303C 94.3813,299.415 98.3813,293.249 98.5,284.5C 97.9682,275.471 94.4682,267.805 88,261.5C 81.0308,255.532 74.3641,249.199 68,242.5C 56.9549,227.31 55.6216,211.31 64,194.5C 70.6769,186.754 78.8436,181.42 88.5,178.5 Z"/></g>
<g><path style="opacity:1" fill="#02fefd" d="M 231.5,179.5 C 243.178,178.445 254.178,180.612 264.5,186C 270.25,191.329 274.084,197.829 276,205.5C 276.865,215.552 276.531,225.552 275,235.5C 269.06,254.652 262.727,273.652 256,292.5C 253.649,307.82 258.482,310.987 270.5,302C 277.066,295.434 283.566,288.934 290,282.5C 293.143,283.943 294.643,286.443 294.5,290C 289.852,308.619 278.518,321.285 260.5,328C 251.662,331.477 242.995,331.143 234.5,327C 229.412,321.742 227.079,315.409 227.5,308C 227.647,303.13 228.147,298.297 229,293.5C 234.331,276.173 239.664,258.839 245,241.5C 248.034,234.089 249.034,226.422 248,218.5C 246.101,208.795 240.268,204.962 230.5,207C 222.483,210.681 215.983,216.181 211,223.5C 199.5,241.321 191.5,260.654 187,281.5C 186.974,291.549 187.807,301.549 189.5,311.5C 190.016,316.29 188.849,320.624 186,324.5C 179.453,330.031 171.953,332.531 163.5,332C 160.562,329.975 158.728,327.142 158,323.5C 157.121,306.715 158.121,290.048 161,273.5C 164.436,254.152 167.936,234.819 171.5,215.5C 171.276,210.63 169.943,206.13 167.5,202C 164.167,200 160.833,200 157.5,202C 153.355,206.569 148.355,209.236 142.5,210C 138.827,201.889 140.494,194.889 147.5,189C 159.754,180.167 173.088,178.167 187.5,183C 195.186,190.881 198.353,200.381 197,211.5C 204.576,196.417 216.076,185.751 231.5,179.5 Z"/></g>
<g><path style="opacity:1" fill="#03fefd" d="M 416.5,206.5 C 416.334,210.846 416.501,215.179 417,219.5C 417.717,218.956 418.217,218.289 418.5,217.5C 430.761,201.435 446.094,197.601 464.5,206C 472.386,215.4 475.219,226.233 473,238.5C 470.358,256.377 466.691,274.044 462,291.5C 461.333,295.833 461.333,300.167 462,304.5C 464.332,307.791 467.165,308.291 470.5,306C 479.434,299.07 487.767,291.403 495.5,283C 497.888,282.135 499.388,282.968 500,285.5C 500.956,293.602 498.956,300.935 494,307.5C 482.707,322.896 467.541,330.396 448.5,330C 441.763,328.264 437.263,324.097 435,317.5C 434.333,311.5 434.333,305.5 435,299.5C 441.096,279.116 445.93,258.449 449.5,237.5C 450.253,231.977 447.919,228.977 442.5,228.5C 436.487,229.996 431.653,233.329 428,238.5C 409.033,263.732 400.366,292.065 402,323.5C 396.539,330.647 389.372,333.481 380.5,332C 378.383,330.269 376.883,328.102 376,325.5C 375.333,319.833 375.333,314.167 376,308.5C 380.686,289.088 385.686,269.755 391,250.5C 392.387,242.182 393.553,233.849 394.5,225.5C 395.878,208.343 388.878,203.176 373.5,210C 362.49,220.846 354.656,233.68 350,248.5C 346.392,258.993 343.392,269.659 341,280.5C 340.975,290.553 341.808,300.553 343.5,310.5C 344.571,318.149 341.904,323.983 335.5,328C 331.104,330.366 326.437,331.866 321.5,332.5C 316.187,331.95 313.02,328.95 312,323.5C 311.232,311.801 311.565,300.135 313,288.5C 316.353,265.713 320.353,243.047 325,220.5C 326.037,214.606 325.371,208.939 323,203.5C 320.441,200.651 317.274,199.817 313.5,201C 309.167,204 304.833,207 300.5,210C 298.741,210.798 297.074,210.631 295.5,209.5C 293.19,198.287 297.19,190.12 307.5,185C 316.959,179.601 326.959,178.267 337.5,181C 343.464,183.634 347.297,188.134 349,194.5C 349.853,198.469 350.519,202.469 351,206.5C 357.395,193.769 367.228,184.935 380.5,180C 390.966,178.159 400.466,180.326 409,186.5C 413.768,192.302 416.268,198.968 416.5,206.5 Z"/></g>
<g><path style="opacity:1" fill="#54fe58" d="M 89.5,198.5 C 107.39,195.872 113.223,202.872 107,219.5C 104.71,223.619 101.876,227.286 98.5,230.5C 90.2875,224.117 84.6209,215.951 81.5,206C 83.3958,202.602 86.0625,200.102 89.5,198.5 Z"/></g>
<g><path style="opacity:1" fill="#23fec2" d="M 416.5,206.5 C 417.167,210.167 417.833,213.833 418.5,217.5C 418.217,218.289 417.717,218.956 417,219.5C 416.501,215.179 416.334,210.846 416.5,206.5 Z"/></g>
</svg>
