<?xml version="1.0" encoding="UTF-8"?>
<!DOCTYPE svg PUBLIC "-//W3C//DTD SVG 1.1//EN" "http://www.w3.org/Graphics/SVG/1.1/DTD/svg11.dtd">
<svg xmlns="http://www.w3.org/2000/svg" version="1.1" width="192px" height="192px" style="shape-rendering:geometricPrecision; text-rendering:geometricPrecision; image-rendering:optimizeQuality; fill-rule:evenodd; clip-rule:evenodd" xmlns:xlink="http://www.w3.org/1999/xlink">
<g><path style="opacity:0.998" fill="#54fe55" d="M 10.5,-0.5 C 67.1667,-0.5 123.833,-0.5 180.5,-0.5C 184.5,2.83333 188.167,6.5 191.5,10.5C 191.5,67.1667 191.5,123.833 191.5,180.5C 188.167,184.5 184.5,188.167 180.5,191.5C 123.833,191.5 67.1667,191.5 10.5,191.5C 6.5,188.167 2.83333,184.5 -0.5,180.5C -0.5,123.833 -0.5,67.1667 -0.5,10.5C 2.83333,6.5 6.5,2.83333 10.5,-0.5 Z"/></g>
<g><path style="opacity:1" fill="#0afef9" d="M 31.5,66.5 C 43.818,65.1997 48.9846,70.533 47,82.5C 44.9263,85.078 42.4263,87.078 39.5,88.5C 52.4328,98.7357 52.7662,109.236 40.5,120C 32.6293,124.171 24.6293,124.504 16.5,121C 9.53559,112.685 9.86893,104.685 17.5,97C 19.4727,96.5045 21.4727,96.3379 23.5,96.5C 22.5784,101.472 22.4117,106.472 23,111.5C 27.9468,115.648 32.2801,114.981 36,109.5C 36.7901,106.366 36.4568,103.366 35,100.5C 29.9196,96.0906 25.5863,91.0906 22,85.5C 21.3333,82.1667 21.3333,78.8333 22,75.5C 24.4057,71.5915 27.5724,68.5915 31.5,66.5 Z"/></g>
<g><path style="opacity:1" fill="#07fefa" d="M 59.5,67.5 C 68.8798,65.3942 73.7131,69.0608 74,78.5C 79.7405,67.3169 88.2405,64.4836 99.5,70C 103.863,76.2907 104.696,83.124 102,90.5C 100.197,96.2422 98.1971,101.909 96,107.5C 95.3333,109.5 95.3333,111.5 96,113.5C 97.0495,114.517 98.2161,114.684 99.5,114C 102.828,111.505 105.828,108.671 108.5,105.5C 109.665,108.535 109.498,111.535 108,114.5C 103.051,121.061 96.5509,123.895 88.5,123C 87.6667,122.167 86.8333,121.333 86,120.5C 85.3333,116.167 85.3333,111.833 86,107.5C 89.0493,99.7361 91.2159,91.7361 92.5,83.5C 92.4871,78.001 89.8205,76.1677 84.5,78C 79.0795,82.323 75.2461,87.823 73,94.5C 69.4668,102.895 68.4668,111.562 70,120.5C 62.3508,127.139 58.5174,125.472 58.5,115.5C 59.7834,105.8 61.2834,96.1328 63,86.5C 63.6667,82.8333 63.6667,79.1667 63,75.5C 62.4387,74.9781 61.772,74.6448 61,74.5C 58.2362,76.1267 55.4029,77.4601 52.5,78.5C 52.0792,72.9951 54.4125,69.3284 59.5,67.5 Z"/></g>
<g><path style="opacity:1" fill="#0afef9" d="M 116.5,67.5 C 120.182,67.3347 123.848,67.5014 127.5,68C 129.816,70.3051 131.15,73.1384 131.5,76.5C 136.968,66.9553 144.468,64.9553 154,70.5C 155.605,73.6478 156.605,76.9811 157,80.5C 163.047,74.2716 169.38,73.9383 176,79.5C 176.935,81.9088 177.435,84.4088 177.5,87C 175.346,96.0915 173.679,105.258 172.5,114.5C 178.125,113.407 182.625,110.407 186,105.5C 187.487,107.272 187.82,109.272 187,111.5C 182.537,119.646 175.704,123.48 166.5,123C 163.161,121.114 161.827,118.281 162.5,114.5C 164.594,106.045 166.594,97.5448 168.5,89C 168.233,85.8358 166.567,84.8358 163.5,86C 154.001,95.4921 149.834,106.992 151,120.5C 148.653,123.856 145.653,124.856 142,123.5C 140.517,120.298 140.183,116.964 141,113.5C 143.741,103.96 145.908,94.2938 147.5,84.5C 148.482,78.6727 146.149,76.5061 140.5,78C 132.779,86.28 128.446,96.1133 127.5,107.5C 128.192,111.498 128.359,115.498 128,119.5C 125.794,123.02 122.627,124.52 118.5,124C 116.973,121.243 116.307,118.243 116.5,115C 118.065,102.125 119.565,89.2913 121,76.5C 120.311,75.6433 119.478,74.9767 118.5,74.5C 116.018,76.3435 113.351,77.6769 110.5,78.5C 110.338,76.4727 110.505,74.4727 111,72.5C 112.812,70.6997 114.645,69.0331 116.5,67.5 Z"/></g>
<g><path style="opacity:1" fill="#52fe5d" d="M 31.5,74.5 C 41.0759,73.4558 43.0759,76.9558 37.5,85C 32.0295,83.5653 30.0295,80.0653 31.5,74.5 Z"/></g>
</svg>
