<?xml version="1.0" encoding="UTF-8"?>
<!DOCTYPE svg PUBLIC "-//W3C//DTD SVG 1.1//EN" "http://www.w3.org/Graphics/SVG/1.1/DTD/svg11.dtd">
<svg xmlns="http://www.w3.org/2000/svg" version="1.1" width="180px" height="180px" style="shape-rendering:geometricPrecision; text-rendering:geometricPrecision; image-rendering:optimizeQuality; fill-rule:evenodd; clip-rule:evenodd" xmlns:xlink="http://www.w3.org/1999/xlink">
<g><path style="opacity:0.998" fill="#54fe56" d="M 9.5,-0.5 C 62.8333,-0.5 116.167,-0.5 169.5,-0.5C 173.167,2.5 176.5,5.83333 179.5,9.5C 179.5,62.8333 179.5,116.167 179.5,169.5C 176.5,173.167 173.167,176.5 169.5,179.5C 116.167,179.5 62.8333,179.5 9.5,179.5C 5.83333,176.5 2.5,173.167 -0.5,169.5C -0.5,116.167 -0.5,62.8333 -0.5,9.5C 2.5,5.83333 5.83333,2.5 9.5,-0.5 Z"/></g>
<g><path style="opacity:1" fill="#07fefa" d="M 29.5,62.5 C 41.9439,61.4298 46.4439,66.7631 43,78.5C 41.1886,80.5433 39.022,82.0433 36.5,83C 44.7171,87.9469 47.5505,95.1135 45,104.5C 40.4594,111.781 33.7927,115.781 25,116.5C 14.3132,115.15 9.64658,109.15 11,98.5C 12.6997,93.2827 16.1997,90.616 21.5,90.5C 21.5429,93.8674 21.2096,97.2008 20.5,100.5C 20.4858,102.593 21.1524,104.426 22.5,106C 32.0628,107.444 35.5628,103.61 33,94.5C 28.2511,90.4221 24.2511,85.7554 21,80.5C 18.7605,71.9826 21.5938,65.9826 29.5,62.5 Z"/></g>
<g><path style="opacity:1" fill="#08fefa" d="M 57.5,62.5 C 65.3742,61.8732 69.2075,65.5398 69,73.5C 71.883,68.9499 75.7163,65.4499 80.5,63C 94.3785,62.233 99.5452,68.733 96,82.5C 94.5753,88.6848 92.5753,94.6848 90,100.5C 89.3333,102.5 89.3333,104.5 90,106.5C 91.0495,107.517 92.2161,107.684 93.5,107C 96.0159,104.317 98.6826,101.817 101.5,99.5C 102.767,102.239 102.601,104.906 101,107.5C 96.4098,113.918 90.2431,116.418 82.5,115C 79.6819,111.662 78.8485,107.829 80,103.5C 82.5664,95.3986 84.7331,87.2319 86.5,79C 86.3581,72.5476 83.3581,70.8809 77.5,74C 68.442,83.558 64.7753,94.8913 66.5,108C 65.9632,114.841 62.4632,117.341 56,115.5C 54.8354,104.272 55.8354,93.2724 59,82.5C 59.6667,78.8333 59.6667,75.1667 59,71.5C 58.2753,70.9415 57.4419,70.6082 56.5,70.5C 54.5229,71.4599 52.5229,72.4599 50.5,73.5C 49.2757,71.1022 49.4424,68.7689 51,66.5C 53.3143,65.2668 55.4809,63.9334 57.5,62.5 Z"/></g>
<g><path style="opacity:1" fill="#08fefa" d="M 111.5,62.5 C 118.46,61.6356 122.293,64.6356 123,71.5C 127.161,63.8308 133.327,61.3308 141.5,64C 145.049,66.9639 146.882,70.7972 147,75.5C 152.785,69.3813 158.785,69.048 165,74.5C 165.667,79.5 165.667,84.5 165,89.5C 163.451,95.1292 162.451,100.796 162,106.5C 163.049,107.517 164.216,107.684 165.5,107C 168.062,103.935 171.062,101.435 174.5,99.5C 175.139,107.408 171.473,112.575 163.5,115C 156.34,117.317 152.673,114.817 152.5,107.5C 154.788,98.6291 156.455,89.6291 157.5,80.5C 155.801,80.3398 154.134,80.5065 152.5,81C 144.038,90.11 140.205,100.943 141,113.5C 138.199,116.796 135.199,117.129 132,114.5C 131.333,111.833 131.333,109.167 132,106.5C 134.718,97.4618 136.885,88.2951 138.5,79C 138.911,73.7426 136.578,71.7426 131.5,73C 124.604,80.6775 120.604,89.6775 119.5,100C 120.292,104.157 120.458,108.323 120,112.5C 111.567,119.307 108.067,117.307 109.5,106.5C 110.748,95.0957 112.248,83.7623 114,72.5C 113.196,71.1955 112.029,70.5288 110.5,70.5C 108.361,71.9771 106.028,72.9771 103.5,73.5C 103.318,71.4086 103.652,69.4086 104.5,67.5C 106.724,65.566 109.058,63.8994 111.5,62.5 Z"/></g>
<g><path style="opacity:1" fill="#51fe60" d="M 30.5,69.5 C 39.5512,69.9859 40.8845,73.6526 34.5,80.5C 29.7308,77.5989 28.3975,73.9323 30.5,69.5 Z"/></g>
</svg>
