<?xml version="1.0" encoding="UTF-8"?>
<!DOCTYPE svg PUBLIC "-//W3C//DTD SVG 1.1//EN" "http://www.w3.org/Graphics/SVG/1.1/DTD/svg11.dtd">
<svg xmlns="http://www.w3.org/2000/svg" version="1.1" width="16px" height="16px" style="shape-rendering:geometricPrecision; text-rendering:geometricPrecision; image-rendering:optimizeQuality; fill-rule:evenodd; clip-rule:evenodd" xmlns:xlink="http://www.w3.org/1999/xlink">
<g><path style="opacity:0.987" fill="#53fe5b" d="M -0.5,-0.5 C 4.83333,-0.5 10.1667,-0.5 15.5,-0.5C 15.5,2.5 15.5,5.5 15.5,8.5C 14.8999,7.09982 13.8999,6.09982 12.5,5.5C 11.5,5.5 10.5,5.5 9.5,5.5C 9.45685,9.8926 9.95685,10.2259 11,6.5C 11.2321,7.73747 11.7321,8.73747 12.5,9.5C 13.5,9.5 14.5,9.5 15.5,9.5C 15.5,11.5 15.5,13.5 15.5,15.5C 10.1667,15.5 4.83333,15.5 -0.5,15.5C -0.5,10.1667 -0.5,4.83333 -0.5,-0.5 Z"/></g>
<g><path style="opacity:1" fill="#16fed7" d="M 12.5,5.5 C 12.5,6.83333 12.5,8.16667 12.5,9.5C 11.7321,8.73747 11.2321,7.73747 11,6.5C 9.95685,10.2259 9.45685,9.8926 9.5,5.5C 10.5,5.5 11.5,5.5 12.5,5.5 Z"/></g>
<g><path style="opacity:1" fill="#33feba" d="M 1.5,5.5 C 3.97247,6.74866 4.13914,8.41533 2,10.5C 0.372072,9.03834 0.205405,7.37167 1.5,5.5 Z"/></g>
<g><path style="opacity:1" fill="#19fed9" d="M 4.5,5.5 C 5.97782,5.23798 7.31116,5.57131 8.5,6.5C 8.06233,7.50633 7.39567,7.50633 6.5,6.5C 4.99753,10.374 4.33087,10.0407 4.5,5.5 Z"/></g>
<g><path style="opacity:1" fill="#35fea1" d="M 12.5,5.5 C 13.8999,6.09982 14.8999,7.09982 15.5,8.5C 15.5,8.83333 15.5,9.16667 15.5,9.5C 14.5,9.5 13.5,9.5 12.5,9.5C 12.5,8.16667 12.5,6.83333 12.5,5.5 Z"/></g>
</svg>
