<?xml version="1.0" encoding="UTF-8"?>
<!DOCTYPE svg PUBLIC "-//W3C//DTD SVG 1.1//EN" "http://www.w3.org/Graphics/SVG/1.1/DTD/svg11.dtd">
<svg xmlns="http://www.w3.org/2000/svg" version="1.1" width="48px" height="48px" style="shape-rendering:geometricPrecision; text-rendering:geometricPrecision; image-rendering:optimizeQuality; fill-rule:evenodd; clip-rule:evenodd" xmlns:xlink="http://www.w3.org/1999/xlink">
<g><path style="opacity:0.991" fill="#54fe57" d="M 0.5,-0.5 C 15.8333,-0.5 31.1667,-0.5 46.5,-0.5C 46.5,0.166667 46.8333,0.5 47.5,0.5C 47.5,15.8333 47.5,31.1667 47.5,46.5C 46.8333,46.5 46.5,46.8333 46.5,47.5C 31.1667,47.5 15.8333,47.5 0.5,47.5C 0.5,46.8333 0.166667,46.5 -0.5,46.5C -0.5,31.1667 -0.5,15.8333 -0.5,0.5C 0.166667,0.5 0.5,0.166667 0.5,-0.5 Z"/></g>
<g><path style="opacity:1" fill="#15feec" d="M 13.5,16.5 C 15.4918,16.3285 17.1585,16.9951 18.5,18.5C 20.4515,16.467 22.6182,16.1337 25,17.5C 24.9603,21.2226 24.6269,24.8892 24,28.5C 24.8373,26.9926 26.0039,26.4926 27.5,27C 26.2748,28.563 24.7748,29.7297 23,30.5C 21.5,30.3333 20.6667,29.5 20.5,28C 21.6868,25.2764 22.3535,22.4431 22.5,19.5C 20.0885,19.1367 18.5885,20.1367 18,22.5C 17.5026,25.146 17.3359,27.8127 17.5,30.5C 16.5,30.5 15.5,30.5 14.5,30.5C 14.3396,27.1165 14.673,23.7831 15.5,20.5C 14.7745,19.1331 14.1079,17.7997 13.5,16.5 Z"/></g>
<g><path style="opacity:1" fill="#1bfee7" d="M 28.5,16.5 C 30.3904,16.2965 31.8904,16.9632 33,18.5C 35.5219,15.6736 37.5219,16.0069 39,19.5C 40.3561,18.6198 41.8561,18.2865 43.5,18.5C 43.3354,21.5184 43.502,24.5184 44,27.5C 47.1988,26.7636 47.3655,27.5969 44.5,30C 43.2068,30.49 41.8734,30.6567 40.5,30.5C 40.8756,27.3733 40.8756,24.3733 40.5,21.5C 37.924,23.8781 36.924,26.8781 37.5,30.5C 36.5,30.5 35.5,30.5 34.5,30.5C 35.1667,26.8333 35.8333,23.1667 36.5,19.5C 34.8762,19.3601 33.7096,20.0267 33,21.5C 31.8512,24.3926 31.3512,27.3926 31.5,30.5C 30.5,30.5 29.5,30.5 28.5,30.5C 29.3302,25.4252 29.3302,20.7585 28.5,16.5 Z"/></g>
<g><path style="opacity:1" fill="#13feeb" d="M 6.5,16.5 C 8.94835,16.0101 10.615,16.8434 11.5,19C 11.0442,22.1085 10.8776,25.2751 11,28.5C 7.10944,31.652 4.27611,30.9853 2.5,26.5C 2.4528,24.9996 3.11947,23.9996 4.5,23.5C 5.16667,25.1667 5.83333,26.8333 6.5,28.5C 7.08605,28.2907 7.58605,27.9574 8,27.5C 7.76486,24.8831 6.93153,22.3831 5.5,20C 5.6483,18.7441 5.98163,17.5774 6.5,16.5 Z"/></g>
<g><path style="opacity:1" fill="#4bfe6a" d="M 7.5,18.5 C 9.33702,18.6395 9.67036,19.3061 8.5,20.5C 7.70245,20.0431 7.36912,19.3764 7.5,18.5 Z"/></g>
</svg>
