<?xml version="1.0" encoding="UTF-8"?>
<!DOCTYPE svg PUBLIC "-//W3C//DTD SVG 1.1//EN" "http://www.w3.org/Graphics/SVG/1.1/DTD/svg11.dtd">
<svg xmlns="http://www.w3.org/2000/svg" version="1.1" width="32px" height="32px" style="shape-rendering:geometricPrecision; text-rendering:geometricPrecision; image-rendering:optimizeQuality; fill-rule:evenodd; clip-rule:evenodd" xmlns:xlink="http://www.w3.org/1999/xlink">
<g><path style="opacity:0.994" fill="#53fe59" d="M -0.5,-0.5 C 10.1667,-0.5 20.8333,-0.5 31.5,-0.5C 31.5,10.1667 31.5,20.8333 31.5,31.5C 20.8333,31.5 10.1667,31.5 -0.5,31.5C -0.5,20.8333 -0.5,10.1667 -0.5,-0.5 Z"/></g>
<g><path style="opacity:1" fill="#2ffebf" d="M 6.5,13.5 C 5.16667,13.5 4.5,12.8333 4.5,11.5C 4.89657,10.475 5.56323,10.3083 6.5,11C 7.77359,11.9772 7.77359,12.8106 6.5,13.5 Z"/></g>
<g><path style="opacity:1" fill="#15feeb" d="M 18.5,10.5 C 21.9984,9.89142 25.3317,10.5581 28.5,12.5C 28.3379,14.5273 28.5045,16.5273 29,18.5C 30.6665,17.6598 30.8331,18.1598 29.5,20C 28.0347,20.6013 27.0347,20.1013 26.5,18.5C 27.4847,16.9017 27.6514,15.235 27,13.5C 25.4728,15.221 24.4728,17.221 24,19.5C 24.0534,17.0641 23.8867,14.7308 23.5,12.5C 21.1698,14.5749 20.0032,17.2415 20,20.5C 19.9994,17.313 19.1661,14.4797 17.5,12C 18.056,11.6174 18.3893,11.1174 18.5,10.5 Z"/></g>
<g><path style="opacity:1" fill="#19fee6" d="M 9.5,10.5 C 10.7498,10.5774 11.5831,11.244 12,12.5C 13.0793,10.6063 14.4126,10.273 16,11.5C 16.6869,13.5675 16.5202,15.5675 15.5,17.5C 16.1667,17.8333 16.8333,18.1667 17.5,18.5C 16.7112,20.4879 15.5445,20.8213 14,19.5C 14.1554,17.1893 14.1554,14.856 14,12.5C 12.1815,14.9156 10.8482,17.5822 10,20.5C 9.289,18.1009 9.45567,15.7676 10.5,13.5C 8.56503,12.787 8.2317,11.787 9.5,10.5 Z"/></g>
<g><path style="opacity:1" fill="#11feef" d="M 4.5,11.5 C 4.5,12.8333 5.16667,13.5 6.5,13.5C 8.53794,17.939 7.20461,20.1057 2.5,20C 1.15139,18.3646 1.31806,16.8646 3,15.5C 3.24917,16.624 3.74917,17.624 4.5,18.5C 4.83333,18 5.16667,17.5 5.5,17C 4.83333,15.6667 4.16667,14.3333 3.5,13C 3.56993,12.2352 3.90326,11.7352 4.5,11.5 Z"/></g>
</svg>
