<?xml version="1.0" encoding="UTF-8"?>
<!DOCTYPE svg PUBLIC "-//W3C//DTD SVG 1.1//EN" "http://www.w3.org/Graphics/SVG/1.1/DTD/svg11.dtd">
<svg xmlns="http://www.w3.org/2000/svg" version="1.1" width="128px" height="128px" style="shape-rendering:geometricPrecision; text-rendering:geometricPrecision; image-rendering:optimizeQuality; fill-rule:evenodd; clip-rule:evenodd" xmlns:xlink="http://www.w3.org/1999/xlink">
<g><path style="opacity:0.996" fill="#54fe56" d="M 6.5,-0.5 C 44.5,-0.5 82.5,-0.5 120.5,-0.5C 123.167,1.5 125.5,3.83333 127.5,6.5C 127.5,44.5 127.5,82.5 127.5,120.5C 125.5,123.167 123.167,125.5 120.5,127.5C 82.5,127.5 44.5,127.5 6.5,127.5C 3.83333,125.5 1.5,123.167 -0.5,120.5C -0.5,82.5 -0.5,44.5 -0.5,6.5C 1.5,3.83333 3.83333,1.5 6.5,-0.5 Z"/></g>
<g><path style="opacity:1" fill="#0bfef7" d="M 19.5,44.5 C 23.8394,43.8461 27.6727,44.8461 31,47.5C 32.608,52.5845 31.108,56.2511 26.5,58.5C 35.0107,66.9014 34.344,74.4014 24.5,81C 12.5571,85.0415 7.05707,80.8748 8,68.5C 9.8864,65.758 12.3864,64.0913 15.5,63.5C 14.4829,67.3941 14.4829,71.2275 15.5,75C 23.0853,76.4215 25.5853,73.5881 23,66.5C 19.962,63.7974 17.2954,60.7974 15,57.5C 13.3794,51.9227 14.8794,47.5894 19.5,44.5 Z"/></g>
<g><path style="opacity:1" fill="#0cfef7" d="M 48.5,63.5 C 47.7321,64.2625 47.2321,65.2625 47,66.5C 46.501,70.8206 46.3343,75.1539 46.5,79.5C 44.2563,82.6953 41.7563,83.0286 39,80.5C 39.0188,71.5474 40.1854,62.7141 42.5,54C 42.1859,49.1726 40.1859,48.3392 36.5,51.5C 35.596,50.791 35.2627,49.791 35.5,48.5C 38.8592,44.1623 42.8592,43.4957 47.5,46.5C 48.2978,48.0777 48.7978,49.7444 49,51.5C 51.1667,49.3333 53.3333,47.1667 55.5,45C 63.6522,42.8873 67.9855,45.8873 68.5,54C 66.9252,61.5487 65.2586,69.0487 63.5,76.5C 64.552,76.6495 65.552,76.4828 66.5,76C 68.3501,73.9824 70.3501,72.1491 72.5,70.5C 72.8333,71.1667 73.1667,71.8333 73.5,72.5C 71.0387,78.8985 66.3721,82.0652 59.5,82C 56.6061,79.0913 55.7728,75.5913 57,71.5C 58.1365,67.7568 59.4698,64.0901 61,60.5C 61.7772,57.5706 61.6105,54.7372 60.5,52C 56.7399,50.8238 53.9066,51.9904 52,55.5C 50.5462,58.0711 49.3795,60.7378 48.5,63.5 Z"/></g>
<g><path style="opacity:1" fill="#0dfef6" d="M 86.5,47.5 C 86.281,48.675 86.6143,49.675 87.5,50.5C 88.1067,50.3764 88.44,50.0431 88.5,49.5C 92.6203,43.7858 97.4536,43.1191 103,47.5C 103.192,49.5767 103.692,51.5767 104.5,53.5C 108.439,49.9859 112.605,49.6525 117,52.5C 117.741,59.1023 117.241,65.6023 115.5,72C 115.833,73.5 116.167,75 116.5,76.5C 118.65,74.8509 120.65,73.0176 122.5,71C 123.6,70.5683 124.267,71.0683 124.5,72.5C 122.331,79.4139 117.664,82.5805 110.5,82C 108.993,80.5267 108.326,78.6934 108.5,76.5C 109.932,69.8797 110.932,63.2131 111.5,56.5C 110.448,56.3505 109.448,56.5172 108.5,57C 102.445,63.6208 99.6115,71.4542 100,80.5C 95.8215,83.7501 93.6549,82.7501 93.5,77.5C 94.8409,71.136 96.3409,64.8027 98,58.5C 98.439,50.4304 95.7723,49.4304 90,55.5C 88.2589,58.3093 87.0922,61.3093 86.5,64.5C 84.5185,67.3726 84.1851,70.3726 85.5,73.5C 87.0795,80.4172 84.5795,83.0839 78,81.5C 78.2361,70.807 79.0695,60.1403 80.5,49.5C 78.1667,50.1667 75.8333,50.8333 73.5,51.5C 74.7305,45.4645 78.3971,43.2978 84.5,45C 85.3805,45.7083 86.0472,46.5416 86.5,47.5 Z"/></g>
<g><path style="opacity:1" fill="#2ffea5" d="M 86.5,47.5 C 87.1667,48.1667 87.8333,48.8333 88.5,49.5C 88.44,50.0431 88.1067,50.3764 87.5,50.5C 86.6143,49.675 86.281,48.675 86.5,47.5 Z"/></g>
<g><path style="opacity:1" fill="#50fe66" d="M 20.5,49.5 C 27.1366,48.2818 28.8033,50.4485 25.5,56C 21.9411,55.5815 20.2745,53.4148 20.5,49.5 Z"/></g>
<g><path style="opacity:1" fill="#27feb8" d="M 35.5,48.5 C 35.2627,49.791 35.596,50.791 36.5,51.5C 35.528,52.7514 34.8614,52.418 34.5,50.5C 34.5427,49.5836 34.8761,48.9169 35.5,48.5 Z"/></g>
<g><path style="opacity:1" fill="#48fe7d" d="M 48.5,63.5 C 48.0475,68.9981 47.3809,74.3314 46.5,79.5C 46.3343,75.1539 46.501,70.8206 47,66.5C 47.2321,65.2625 47.7321,64.2625 48.5,63.5 Z"/></g>
<g><path style="opacity:1" fill="#3cfe94" d="M 86.5,64.5 C 86.0371,67.4824 85.7038,70.4824 85.5,73.5C 84.1851,70.3726 84.5185,67.3726 86.5,64.5 Z"/></g>
</svg>
